<?xml version="1.0" encoding="utf-8"?>
<!-- Generator: Adobe Illustrator 26.0.2, SVG Export Plug-In . SVG Version: 6.00 Build 0)  -->
<svg version="1.1" id="Layer_1" xmlns="http://www.w3.org/2000/svg" xmlns:xlink="http://www.w3.org/1999/xlink" x="0px" y="0px"
	 viewBox="0 0 120 120" style="enable-background:new 0 0 120 120;" xml:space="preserve">
<style type="text/css">
	.st0{fill-rule:evenodd;clip-rule:evenodd;fill:#B5B5B5;}
</style>
<path class="st0" d="M36.2,93.8h0.3v-0.6c0.1,0.1,0.1,0.1,0.2,0.2c0.2,0.2,0.6,0.4,0.9,0.5c0.3,0.1,0.7,0,1-0.1
	c0.3-0.1,0.6-0.4,0.8-0.6s0.3-0.6,0.3-1c0-0.3-0.1-0.7-0.3-1c-0.2-0.3-0.5-0.5-0.8-0.6c-0.3-0.1-0.7-0.2-1-0.1
	c-0.3,0.1-0.7,0.2-0.9,0.5c-0.1,0.1-0.1,0.1-0.2,0.2v-2.4h-0.3V93.8L36.2,93.8z M36.8,91.1c0.2-0.2,0.5-0.3,0.7-0.4
	c0.3-0.1,0.6,0,0.8,0.1c0.3,0.1,0.5,0.3,0.6,0.5c0.2,0.2,0.2,0.5,0.2,0.8c0,0.3-0.1,0.6-0.2,0.8c-0.2,0.2-0.4,0.4-0.6,0.5
	c-0.3,0.1-0.6,0.1-0.8,0.1c-0.3-0.1-0.5-0.2-0.7-0.4c-0.2-0.2-0.3-0.4-0.4-0.7v-0.6C36.5,91.5,36.6,91.3,36.8,91.1z M42.6,90.7h-0.3
	l-1.1,2.2l-1.1-2.2h-0.3l1.2,2.6L40.2,95h0.3L42.6,90.7z M47.4,88.6c-0.6,0-1.2,0.2-1.7,0.6c-0.5,0.4-0.8,0.9-0.9,1.5
	c-0.1,0.6,0,1.2,0.3,1.8c0.3,0.5,0.8,1,1.3,1.2s1.2,0.3,1.8,0.1c0.6-0.2,1.1-0.6,1.4-1.1c0.3-0.5,0.5-1.1,0.4-1.7
	c-0.1-0.6-0.3-1.2-0.8-1.6c-0.2-0.2-0.5-0.4-0.8-0.6C48,88.7,47.7,88.6,47.4,88.6L47.4,88.6z M49,89.6c0.4,0.4,0.6,0.9,0.7,1.4
	c0.1,0.5-0.1,1.1-0.4,1.5C49,93,48.5,93.3,48,93.4c-0.5,0.2-1.1,0.1-1.6-0.1c-0.5-0.2-0.9-0.6-1.2-1c-0.3-0.5-0.3-1-0.2-1.5
	c0.1-0.5,0.4-1,0.8-1.3c0.4-0.3,0.9-0.5,1.5-0.5c0.3,0,0.6,0.1,0.9,0.2S48.8,89.4,49,89.6L49,89.6z M51.7,90.6l-0.9,1.1v-2.4h-0.3
	v4.5h0.3v-1.6l0.3-0.3l1.1,1.9h0.4l-1.2-2.2l0.8-1H51.7z M54.1,92.4c0.1,0.1,0.1,0.1,0.1,0.2c0,0.1,0.1,0.2,0.1,0.2
	c0,0.1,0,0.2,0,0.2c0,0.1-0.1,0.1-0.1,0.2c-0.1,0.1-0.1,0.1-0.2,0.1c-0.1,0-0.2,0.1-0.2,0.1c-0.1,0-0.2,0-0.3,0
	c-0.1,0-0.2-0.1-0.2-0.1c-0.1-0.1-0.1-0.1-0.1-0.2c0-0.1,0-0.2,0-0.3l-0.3,0.1c0,0.1,0,0.2,0.1,0.3c0,0.1,0.1,0.2,0.2,0.3
	c0.2,0.2,0.4,0.3,0.7,0.3c0.2,0,0.5-0.1,0.7-0.3l0,0c0.2-0.2,0.3-0.4,0.3-0.7c0-0.2-0.1-0.5-0.3-0.7c-0.2-0.2-0.4-0.3-0.6-0.4
	c-0.1-0.1-0.2-0.2-0.3-0.2c-0.1-0.1-0.1-0.1-0.1-0.2c0-0.1,0-0.2,0-0.3c0-0.1,0.1-0.2,0.2-0.2c0.1-0.1,0.2-0.1,0.3-0.1
	c0.1,0,0.1,0,0.2,0c0.1,0,0.1,0.1,0.1,0.1c0.1,0.1,0.1,0.2,0.1,0.4l0.3-0.1c0-0.1,0-0.2-0.1-0.2c0-0.1-0.1-0.1-0.1-0.2
	c-0.1-0.1-0.2-0.1-0.2-0.2s-0.2-0.1-0.3,0c-0.1,0-0.2,0-0.3,0.1c-0.1,0-0.2,0.1-0.2,0.2c-0.1,0.1-0.2,0.3-0.2,0.5s0.1,0.4,0.2,0.5
	c0.2,0.1,0.3,0.2,0.5,0.3C53.8,92.2,54,92.3,54.1,92.4L54.1,92.4z M57.6,90.6h-0.3l-1.1,2.2l-1.1-2.2h-0.3l1.2,2.6L55.2,95h0.3
	L57.6,90.6z M63.9,88.7L62,91.1l-1.8-2.4h-0.4v5.1h0.3V89l2,2.6l2-2.6v4.8h0.3v-5.1H63.9z M68.4,90.6h-0.3v0.4
	C68,91,68,90.9,67.9,90.9c-0.2-0.2-0.6-0.4-0.9-0.5c-0.3-0.1-0.7,0-1,0.1c-0.3,0.1-0.6,0.4-0.8,0.6c-0.2,0.3-0.3,0.6-0.3,1
	s0.1,0.7,0.3,1c0.2,0.3,0.5,0.5,0.8,0.6c0.3,0.1,0.7,0.2,1,0.1c0.3-0.1,0.7-0.2,0.9-0.5l0,0c0.1-0.1,0.1-0.1,0.2-0.2v0.6h0.3V90.6z
	 M67.7,93.1c-0.2,0.2-0.5,0.3-0.7,0.4c-0.3,0.1-0.6,0-0.8-0.1c-0.3-0.1-0.5-0.3-0.6-0.5c-0.2-0.2-0.2-0.5-0.2-0.8
	c0-0.3,0.1-0.6,0.2-0.8s0.4-0.4,0.6-0.5c0.3-0.1,0.6-0.1,0.8-0.1c0.3,0.1,0.5,0.2,0.7,0.4c0.2,0.2,0.3,0.5,0.4,0.7v0.6
	C68,92.7,67.9,92.9,67.7,93.1L67.7,93.1z M68.8,90.6v0.3h0.6v2.8h0.3v-2.8h0.6v-0.3h-0.6v-1.3h-0.3v1.3H68.8z M70.8,93.8h0.3v-2.5
	c0-0.1,0.1-0.2,0.2-0.3c0.2-0.2,0.4-0.3,0.7-0.3s0.5,0.1,0.7,0.3c0.1,0.1,0.2,0.2,0.2,0.3c0,0.1,0.1,0.2,0.1,0.4v2.1h0.3v-2.1
	c0-0.3-0.1-0.6-0.3-0.8c-0.2-0.2-0.5-0.4-0.8-0.4H72c-0.2,0-0.3,0-0.5,0.1c-0.1,0.1-0.3,0.2-0.4,0.3v-2.1h-0.3L70.8,93.8L70.8,93.8z
	 M74.5,91.1c0.1-0.1,0.3-0.2,0.5-0.3c0.2-0.1,0.4-0.1,0.6-0.1c0.2,0,0.4,0,0.6,0.1c0.2,0.1,0.3,0.2,0.5,0.3l0,0
	c0.2,0.2,0.3,0.4,0.3,0.6h-2.7C74.2,91.4,74.3,91.2,74.5,91.1L74.5,91.1z M77.2,91.9c0-0.2,0-0.4-0.1-0.6c-0.1-0.2-0.2-0.4-0.3-0.5
	c-0.2-0.2-0.6-0.4-0.9-0.5c-0.3-0.1-0.7,0-1,0.1c-0.3,0.1-0.6,0.4-0.8,0.6c-0.2,0.3-0.3,0.6-0.3,1s0.1,0.7,0.3,1
	c0.2,0.3,0.5,0.5,0.8,0.6c0.3,0.1,0.7,0.2,1,0.1c0.3-0.1,0.7-0.2,0.9-0.5c0.1-0.1,0.2-0.2,0.2-0.3L76.7,93c0,0.1-0.1,0.1-0.1,0.2
	c-0.1,0.1-0.3,0.2-0.5,0.3s-0.4,0.1-0.6,0.1c-0.2,0-0.4,0-0.6-0.1s-0.3-0.2-0.5-0.3c-0.1-0.1-0.2-0.3-0.3-0.5
	c-0.1-0.2-0.1-0.4-0.1-0.6c0-0.1,0-0.1,0-0.2L77.2,91.9z M81,90.6l-0.8,2.6l-0.7-2h-0.2l-0.7,2l-0.8-2.6h-0.3l1.1,3.1h0.2l0.7-2
	l0.7,2h0.2l1.1-3.1H81z M82.9,92.4c0.1,0.1,0.1,0.1,0.1,0.2c0,0.1,0,0.2,0,0.2c0,0.2-0.1,0.3-0.2,0.5c-0.1,0.1-0.3,0.2-0.5,0.2
	c-0.1,0-0.2,0-0.2,0S82,93.4,82,93.3c-0.1-0.1-0.2-0.3-0.2-0.5l-0.3,0.1c0,0.1,0,0.2,0.1,0.3c0,0.1,0.1,0.2,0.2,0.3
	c0.1,0.1,0.2,0.2,0.3,0.2c0.1,0,0.2,0.1,0.4,0.1c0.1,0,0.2,0,0.4-0.1c0.1,0,0.2-0.1,0.3-0.2l0,0c0.2-0.2,0.3-0.4,0.3-0.7
	c0-0.2-0.1-0.5-0.3-0.7c-0.2-0.2-0.4-0.3-0.6-0.4c-0.1-0.1-0.2-0.2-0.3-0.2c-0.1-0.1-0.1-0.1-0.1-0.2c0-0.1,0-0.2,0-0.3
	c0-0.1,0.1-0.2,0.2-0.2c0.1-0.1,0.2-0.1,0.3-0.1c0.1,0,0.1,0,0.2,0c0.1,0,0.1,0.1,0.1,0.1c0.1,0.1,0.1,0.2,0.2,0.4l0.2-0.1
	c0-0.1,0-0.2-0.1-0.2c0-0.1-0.1-0.1-0.1-0.2c-0.1-0.1-0.3-0.2-0.5-0.2c-0.2,0-0.4,0.1-0.5,0.2c-0.1,0.1-0.2,0.3-0.2,0.5
	s0.1,0.4,0.2,0.5c0.2,0.1,0.3,0.3,0.5,0.3C82.6,92.2,82.7,92.3,82.9,92.4L82.9,92.4z"/>
<path class="st0" d="M80.1,77.7c0,0.2-0.1,0.4-0.1,0.6c-0.2,0.9-0.4,1.8-0.7,2.7c-0.2,0.9-0.6,1.7-1.1,2.5c-0.5,0.8-1,1.1-1.4,0.8
	c-0.4-0.4-0.7-0.9-0.8-1.5c-0.2-1.3-0.4-2.6-0.4-3.9c-0.1-1.5-0.1-3,0-4.3c0-0.8,0-1.7,0.1-2.5c0-0.1,0-0.3,0-0.4
	c0-0.1-0.1-0.3-0.2-0.3c-0.1-0.1-0.2-0.1-0.3-0.2c-0.1,0-0.2,0-0.4,0c-0.1,0-0.3,0.1-0.3,0.2s-0.2,0.2-0.2,0.4c0,0.1,0,0.1-0.1,0.2
	c-0.1-0.4-0.4-0.8-0.7-1.1l0,0c-0.2-0.2-0.4-0.3-0.6-0.4c-0.5-0.2-1.2-0.2-1.7,0c-0.6,0.2-1.1,0.5-1.6,0.9c-1,0.8-1.7,1.9-2.2,3.2
	c-0.4,0.9-0.6,1.9-0.7,2.9l0,0.1c-0.3,0.6-0.7,1.2-1,1.8c-0.5,0.9-0.9,1.7-1.4,2.5c-0.4,0.6-0.8,1.3-1.2,1.9
	c-0.3,0.5-0.6,0.7-0.7,0.5c-0.1-0.1-0.1-0.6,0-1.5c0.1-0.9,0.4-2.1,0.7-3.3c0.3-1.2,0.6-2.4,0.8-3.6c0.2-1.1,0.3-2.2,0.2-3.2
	c-0.1-1-0.4-1.6-0.8-1.9c-0.2-0.1-0.5-0.2-0.7-0.3c-0.3,0-0.5,0-0.8,0.1c-0.6,0.2-1.2,0.5-1.6,1c-0.9,0.8-1.6,1.7-2.2,2.7
	c-0.6,1-1.1,1.8-1.3,2.4c-0.1,0.1-0.1,0.2-0.2,0.3c-0.2,0.4-0.4,0.7-0.5,1.1l0-0.6c0.1-0.8,0.1-1.5,0.2-2c0-0.1,0-0.3,0-0.4
	c0-0.1-0.1-0.2-0.2-0.3c-0.1-0.1-0.2-0.1-0.3-0.2c-0.1,0-0.2,0-0.3,0c-0.2,0.1-0.4,0.6-0.6,1.5c-0.1,0.6-0.2,1.2-0.3,1.9
	c-1.8,3.7-3,5.9-3.6,6.5c-0.3,0.3-0.5,0.2-0.5-0.3c0-0.8,0-1.6,0.1-2.4c0.1-1.1,0.3-2.2,0.5-3.3c0.2-1.2,0.4-2.3,0.6-3.3
	c0.2-1,0.3-1.7,0.4-2.1c0-0.1,0-0.2,0-0.3c0.1-0.4,0.1-0.8,0.2-1.1c0.1-0.3,0.1-0.5,0.1-0.7c0.1-0.7,0.2-1.5,0.3-2.2
	c0-0.5,0-0.9-0.2-1.4c-0.1-0.2-0.2-0.4-0.3-0.5c-0.1-0.1-0.3-0.3-0.5-0.3c-0.2-0.1-0.4-0.1-0.7,0c-0.2,0-0.4,0.1-0.6,0.3
	c-1.1,0.8-1.9,1.7-2.6,2.9c-0.9,1.4-1.7,2.9-2.5,4.4c-0.8,1.6-1.5,3.2-2.1,4.6c0.1-1.4,0.2-2.8,0.1-4.2c0-1-0.2-1.9-0.5-2.8
	c-0.1-0.3-0.3-0.6-0.5-0.8s-0.5-0.4-0.9-0.4c-0.6-0.1-1.3,0.4-2.2,1.3c-1,1-2,2.8-2.8,5.4c0-0.6,0-1.1,0.1-1.5c0-0.2,0-0.3-0.1-0.5
	c-0.1-0.2-0.1-0.3-0.3-0.4c-0.1-0.1-0.2-0.1-0.3-0.1c-0.1,0-0.2,0-0.3,0.1c-0.1,0.1-0.2,0.2-0.3,0.3c-0.1,0.1-0.1,0.3-0.1,0.4
	c0,0.6-0.1,1.3-0.1,2.2l-0.2,0.2c-0.4,0.5-0.8,1-1.3,1.3c-0.5,0.4-1.1,0.7-1.7,1c-0.2-1.6-0.4-3.1-0.6-4.6c-0.3-1.5-0.5-2.8-0.7-3.9
	L30.3,71c-0.1-0.4-0.2-0.6-0.4-0.7c-0.1,0-0.2,0-0.3,0c-0.1,0-0.2,0.1-0.3,0.1c-0.1,0-0.2,0.1-0.2,0.2c-0.1,0.1-0.1,0.2-0.1,0.3
	c-0.1,0.9-0.3,1.8-0.6,2.6c-0.4,1.3-1,2.6-1.8,3.8c-0.7,1.1-1.2,1.6-1.6,1.7c-0.4,0.1-0.7-0.3-0.8-1c-0.1-1.1-0.1-2.2,0.1-3.3
	c0.1-1.1,0.4-2.2,0.6-3.3c0.1-0.4,0.1-0.7-0.1-0.9c-0.1-0.1-0.2-0.2-0.4-0.2c-0.1,0-0.3-0.1-0.4,0c-0.3,0-0.6,0.1-0.9,0.2
	c-0.1,0-0.2,0.1-0.2,0.1c-0.1,0.1-0.1,0.1-0.1,0.2c0,0.2,0,0.3,0.2,0.3c0.1,0,0.3,0.1,0.4,0.1c0,0.1,0,0.1,0,0.2c0,0.1,0,0.1,0,0.2
	c-0.4,1.5-0.6,3-0.7,4.5c0,0.5,0,1.1,0.2,1.6c-0.3,1.4-0.7,2.7-1.3,4c-0.6,1.6-1.5,3.1-2.4,4.5c-0.7,1.2-1.8,2.2-3,2.8
	c-0.3,0.1-0.5,0.1-0.8,0.1c-0.3,0-0.5-0.1-0.8-0.2c-0.5-0.2-0.9-0.6-1.3-1c-0.3-0.4-0.6-0.9-0.8-1.4c1.2-0.8,2.2-1.8,3-3
	c0.8-1.1,1.4-2.3,2-3.6c0.5-1.2,0.9-2.4,1.2-3.6c0.2-0.7,0.3-1.5,0.3-2.3c0-1.4-0.3-2.3-0.8-2.8c-0.2-0.2-0.5-0.4-0.9-0.4
	c-0.3-0.1-0.7,0-1,0.1c-0.8,0.3-1.5,0.8-2.1,1.4c-0.7,0.7-1.3,1.5-1.7,2.4c-0.8,1.8-1.4,3.7-1.7,5.7c-0.4,2-0.3,4.1,0.2,6
	c-0.5,0.2-1,0.2-1.5,0.1C6.3,85.3,6,79.3,8.2,70.4c0.1-0.4,0.2-0.8,0.3-1.2l0.7-0.1c1.2-0.1,2.5-0.2,3.7-0.4
	c1.2-0.2,2.4-0.6,3.5-1.1c0.9-0.4,1.6-1,2.3-1.7c0.5-0.5,1-1.2,1.3-1.9c0.5-1.3,0.5-2.4,0-3.4c-0.5-0.9-1.3-1.7-2.3-2.1
	c-1.1-0.5-2.4-0.6-3.6-0.4s-2.4,0.7-3.3,1.5c-1.8,1.7-3.3,3.8-4.2,6.1l0,0c-0.4,1-0.8,2.1-1.1,3.1c-1.1,0.2-2.2,0.6-3.2,1.2
	c-0.9,0.6-1.6,1.5-2,2.5c-0.1,0.1-0.1,0.2-0.1,0.4C0,73,0,73.2,0,73.3c0.1,0.2,0.2,0.2,0.6,0.1c0.1,0,0.2-0.1,0.3-0.1
	C0.9,73.2,1,73.2,1,73.1c0-0.1,0.1-0.2,0.1-0.3c0-0.1,0-0.2-0.1-0.3c0.3-0.7,0.8-1.3,1.5-1.7c0.8-0.5,1.7-0.9,2.7-1.1
	c-0.4,1.3-0.6,2.7-0.8,4.1c-0.4,2.6-0.4,5.2,0,7.7c0.2,1,0.5,2,0.9,3c0.4,0.9,1,1.6,1.8,2.2c0.9,0.6,1.9,0.9,2.9,0.8
	c0.5,0,0.9-0.1,1.4-0.2c0.2,0.5,0.5,1,0.9,1.5c0.4,0.4,0.9,0.8,1.4,1c0.5,0.2,1.1,0.3,1.7,0.3s1.1-0.2,1.7-0.5
	c1.1-0.7,2.1-1.7,2.8-2.9c0.9-1.4,1.7-2.9,2.3-4.5c0.3-0.7,0.5-1.4,0.7-2.1c0.2-0.5,0.3-1,0.3-1.6c0,0,0,0,0,0.1
	c0.1,0.3,0.3,0.5,0.5,0.7c0.2,0.2,0.5,0.3,0.8,0.4c0.6,0.1,1.2-0.2,1.9-1c0.7-0.9,1.3-1.9,1.8-2.9c0.2-0.5,0.4-1,0.6-1.4
	c0.1,0.8,0.3,3.7,0.4,6.7c-0.6,0.3-1.3,0.7-1.9,1.1c-1.1,0.7-2,1.5-2.8,2.4c-0.9,1.2-1.7,2.5-2.1,4c-0.5,1.7-0.5,3.1,0.1,4.3
	c0.3,0.6,0.7,1.2,1.3,1.6c0.6,0.4,1.3,0.6,2,0.5c0.7,0,1.4-0.2,2.1-0.5c0.7-0.3,1.2-0.7,1.7-1.2c0.9-1.1,1.6-2.4,1.9-3.7
	c0.3-1.5,0.5-3,0.5-4.6c0-1.6-0.1-3-0.2-4.2c0.6-0.3,1.2-0.6,1.8-1c0.5-0.3,0.9-0.7,1.3-1.1c0,0.7,0,1.3,0,1.9c0,0.9,0,1.6,0,2
	c0,0.1,0,0.2,0,0.3c0,0.1,0.1,0.2,0.2,0.3c0.2,0.1,0.3,0.1,0.5,0.1c0.2,0,0.3-0.1,0.4-0.2c0.1-0.1,0.1-0.1,0.2-0.2
	c0-0.1,0.1-0.2,0-0.3c0.1-1.4,0.3-2.8,0.6-4.1c0.3-1.3,0.7-2.7,1.2-3.9c0.4-0.9,0.9-1.7,1.6-2.4c0.2-0.2,0.4-0.4,0.7-0.6
	c2-1.3,0.8,7.7,0.2,9.5c-0.6,1.8-0.1,2.2,1.2,2.3c0.1,0,0.3,0,0.4,0c0.1,0,0.2-0.1,0.3-0.1c0.1-0.1,0.1-0.2,0.2-0.3
	c0.1-0.6,0.3-1.3,0.6-2.2c0.3-0.9,0.5-1.6,0.7-2.1c0.6-1.4,1.2-2.9,2-4.5c0.7-1.5,1.5-2.9,2.4-4.2c0.4-0.6,0.8-1.2,1.3-1.7
	c1.1-0.7,0.9,0.5,0.6,2.3c-0.5,2.4-1.7,5.5-2.3,9.5c-0.8,5.2,1.1,5.1,2.3,5.3h0.1c0.4,0,1-0.6,1.8-1.7c0.8-1.3,1.6-2.6,2.3-4
	c0,0.8,0,1.5,0,2.2c0,0.9,0.1,1.3,0.2,1.5c0.1,0,0.2,0.1,0.4,0.1c0.1,0,0.2,0,0.3-0.1c0.1,0,0.2-0.1,0.3-0.2
	c0.1-0.1,0.1-0.2,0.1-0.3c0.1-1,0.2-1.9,0.5-2.8c0.2-0.9,0.5-1.8,1-2.7c0.7-1.3,1.4-2.5,2.3-3.7c0.4-0.5,0.7-0.9,1.1-1.3
	c1.1-0.7,1.4,0.5,0.8,2.7c-0.6,2.2-1.1,4.4-1.4,6.7c-0.6,4,1.1,3.8,2,3.9c0.3,0.1,0.8-0.2,1.4-0.9c0.8-1,1.6-2.1,2.2-3.3l0,0
	c0.5-0.9,0.9-1.7,1.2-2.2c0,1,0.3,2,0.8,2.8c0.2,0.4,0.5,0.8,0.9,1.1c0.4,0.3,0.9,0.4,1.3,0.4c0.4,0,0.9-0.1,1.3-0.3
	c0.4-0.2,0.7-0.5,1-0.8c0.6-0.7,1-1.6,1.3-2.5c0.2-0.8,0.4-1.5,0.6-2.3c0-0.2,0.1-0.4,0.1-0.6c0,1.1,0,2.1,0.1,3
	c0.1,0.9,0.2,1.8,0.4,2.6c0.1,0.2,0.2,0.5,0.3,0.9c0.1,0.3,0.3,0.7,0.5,1c0.1,0.3,0.3,0.5,0.6,0.7c0.2,0.2,0.5,0.3,0.8,0.3
	c0.3,0,0.6-0.1,0.8-0.2c0.3-0.1,0.5-0.3,0.7-0.6c0.7-0.9,1.2-2,1.5-3.1c0.3-1,0.5-2,0.6-3.1c0.1-0.4,0.1-0.8,0-1.1
	C80.3,77,80.3,77.2,80.1,77.7z M18,59.7c0.4,0.2,0.8,0.6,1.1,1c0.6,0.8,0.7,1.9,0.2,3.2c-0.3,0.6-0.6,1.2-1.1,1.7
	c-0.6,0.6-1.3,1.1-2.1,1.5c-1,0.5-2.2,0.9-3.3,1.1c-1.2,0.2-2.4,0.3-3.6,0.4H9l-0.3,0C11.2,61.1,16,59.1,18,59.7z M12.3,80.7
	c0.3-1.8,0.8-3.6,1.6-5.3l0,0c0.3-0.6,0.7-1.3,1.1-1.8c0.4-0.6,0.9-1,1.5-1.5c0.2-0.2,0.4-0.3,0.6-0.3c0.2,0,0.5,0,0.7,0.1
	c0.4,0.2,0.5,0.9,0.6,2.1c0,0.7-0.1,1.4-0.3,2.1c-0.3,1.2-0.7,2.4-1.2,3.5c-0.5,1.2-1.2,2.4-1.9,3.4c-0.7,1.1-1.6,2-2.7,2.8
	C12,84.2,12,82.4,12.3,80.7L12.3,80.7z M29.2,88.8c-0.6,3.7-2.7,5.6-5,4.9c0,0.1,0.1,0.1,0.2,0.2c-0.5-0.3-0.8-0.8-1.1-1.3
	c-0.5-1-0.5-2.2,0-3.8c0.4-1.3,1-2.6,1.9-3.7c0.7-0.9,1.6-1.7,2.6-2.3c0.5-0.3,1.1-0.7,1.6-0.9C29.5,84.2,29.4,86.5,29.2,88.8
	L29.2,88.8z M74.1,73.2c-0.2,0.9-0.4,2-0.6,3.2c-0.2,1.1-0.6,2.3-1,3.4c-0.3,0.8-0.7,1.6-1.3,2.2c-0.1,0.1-0.3,0.2-0.5,0.3
	c-2-0.7-1.5-4.4-1.2-5.9c0.6-2.4,1.7-4.8,3.3-5l0.3,0.1C73.4,71.6,73.8,72.2,74.1,73.2L74.1,73.2z M98.3,68.9
	c-0.3,0.2-0.6,0.6-0.7,1c-0.2,0.8-0.3,1.4-0.1,1.7c0.1,0.3,0.4,0.4,0.7,0.1c0.4-0.4,0.7-0.9,0.8-1.5c0.2-0.7,0.2-1.2,0-1.4
	C98.8,68.7,98.5,68.7,98.3,68.9L98.3,68.9z M110.2,77.1c-0.1,0-0.3,0.2-0.4,0.4c-0.4,0.9-0.9,1.8-1.5,2.5c-0.6,0.8-1.3,1.4-2.1,1.9
	c-0.3,0.2-0.6,0.3-1,0.4c-0.4,0-0.7,0-1-0.2c-0.6-0.3-1-1.1-1.3-2.5c-0.1-0.4-0.1-0.8-0.1-1.3c0-0.5,0-0.9,0.1-1.4
	c0.1-0.7,0.3-1.4,0.4-2c0.2-0.9,0.5-1.7,0.9-2.5c0.1-0.3,0.3-0.6,0.5-0.8c0.2-0.2,0.5-0.4,0.8-0.6c0.1,0,0.3,0,0.4,0
	c0.1,0,0.2,0.1,0.3,0.2c0.1,0.2,0.2,0.5,0.1,0.7c0,0.3,0,0.5,0.2,0.5c0.1,0,0.3-0.1,0.4-0.3c0.1-0.2,0.2-0.5,0.1-0.7
	c0-0.2-0.1-0.4-0.2-0.5c-0.1-0.2-0.2-0.3-0.4-0.4l0,0c-0.2-0.2-0.5-0.3-0.8-0.3c-1.5-0.2-4.3,0.9-5,5.3c-0.2,1.2-0.2,2.4-0.1,3.6
	c-0.2,0.4-0.4,0.8-0.6,1.2c-0.2,0.4-0.5,0.8-0.8,1.2c-1.3,0.6-1.3-1.5-1.1-3.2c0.3-1.9,0.4-3.5,0.5-4.3c0.2-1,0.3-2.2-1.3-1.5h0
	c-0.1,0-0.2,0-0.3,0.1s-0.1,0.2-0.2,0.2c-0.2,0.8-0.4,1.8-0.5,3c-0.1,0.7-0.2,1.3-0.2,2c-0.2,0.6-0.5,1.2-0.9,1.8
	c-0.4,0.8-0.9,1.5-1.5,2.1c-0.2,0.2-0.4,0.4-0.6,0.5c-2,0.4-1.2-5.3-0.9-8.6c0.2-2.3,0.6-4.9,0.9-7.1c1,0.3,4.3,1.3,7,1.3
	c3.3,0,4.2-2.2,4.3-3.2c0.3-2.2,0.4-6.1-2.5-10.7c-1.8-3-4.3-5.9-9.4-7.9c-7.9-3.2-8.1-5.6-8.4-8.7c-0.3-3.2-0.7-5.3-3-6.1
	c-2.3-0.9-4.8,0-7,0.7c-0.1-0.4-0.6-0.5-2.3-0.6c-1.7-0.1-2.8,0.1-5.2,1c-2.4,1-6.8,1.8-8.7,3.3c-1.8,1.5-2.6,1.7-3.1,1.8
	c-0.6,0.1-1.9,0.2-2.9,0.2c-1,0.1-1.7,0.2-1.8-0.4c-0.1-0.6,0.9-0.9,2-0.9c0.5,0,1.1-0.1,1.6-0.3c0.1,0.1,0,0.8,1.2,0.9
	c1.1,0,1.8-1.5,1.4-2.2c-0.4-0.7-1.3-0.3-1.3-0.4c0.2-0.8,0.1-1.6-0.2-2.3c-0.2-0.3-0.4-0.6-0.7-0.9c-0.3-0.2-0.6-0.4-1-0.5
	c-0.7-0.2-1.4-0.2-2.1-0.2c-0.6,0-1.1-0.1-1.6-0.3c-0.5-0.2-0.5-0.1-0.5,0.2s0.1,0.4-0.4,0.7c-0.6,0.2-1.2,0.7-1.1,1.3
	c0.1,0.6,0.5,1.4,0.2,1.9c-0.3,0.5-1.6,2.8-2,2.6c-0.5-0.2,0.2-1.1,0.5-1.8c0.2-0.7,0.2-1.5-0.1-2.2c-0.1-0.8-0.1-1.7,0-2.5
	c0.1-1.2,0.4-2.9,0.4-2.9c1.5-1.6,3-3.1,4.7-4.5c1.9-1.5,2-0.4,3.8-1c1.8-0.5,2.7-1.5,2.6-1.7c-0.1-0.2-0.6-0.3-2.1,0
	c-1.1,0.2-2.1,0.3-3.2,0.2c-1.1,0-1,0.9-2.9,1.9c-1.7,0.9-3.2,1.7-4.5,3.3c-1.3,1.6-1.6,4.2-1.7,7.7c0,3.5-0.4,3.4-0.8,4.6
	c-0.5,1.2-1.9,3-2,3.9c0,0.6,0.3,1.3,0.6,1.8c0.2,0.3,0.1,3.7,0.4,4.9c0.3,1.2,1.9,2.9,1.6,2.9c-1,0.1-1.9,0.1-2.9,0
	c-1.9-0.1-4.4-0.2-5-0.5c-0.4-0.2-0.9-0.3-1.3-0.3c-1.1,0.1-2.3,0.1-3.4,0c-2.3-0.1-5-0.1-7.1-0.4c-2.1-0.3-2.1-0.6-4-0.9
	c-1.3-0.3-2.6-0.3-3.9,0c-1.6,0.2-2.8,0.5-3.2,1.5c-0.1,0.2,0,0.5,0.7,0.3c0.2,0,0.5-0.3,0.8-0.2c0.3,0.1,0.7-0.2,2.1,0.1
	s0.9,1.1,1.9,1.7c0.9,0.6,1.6-0.4,2.5-0.7c0.9-0.3,1.2-0.2,4.7,1.3c3.5,1.5,5.2,0.4,7.1,0.6c1.9,0.2,1.6,1.1,5.5,2.2
	c3.1,0.9,6.3,1,9.4,0.5c2.1-0.3,3.1,0.3,4.8,0.8c1.7,0.6,3.3,0.1,4.5-0.1c1.3-0.1,5-0.9,7.5-1.3c2.5-0.4,3.2-1,5.7-1.9
	c2.5-0.9,3.7-1.3,5.3-1.3s2.3,0.3,3.8,0.4c1.5,0.1,2.1-0.4,3.2-0.5c1.1,0,2.6-1.6,1.9-2.1c-0.2-0.1-0.3-0.1-0.5-0.1
	c-0.2,0-0.3,0.1-0.5,0.3c-0.6,0.3-1.3,0.4-2,0.4c-1.7-0.1-1.7-1.4-2.3-1.9c-0.1-0.1-0.3-0.1-0.4-0.1c-0.1,0-0.3,0-0.4,0
	c-0.1,0-0.3,0.1-0.4,0.2c-0.1,0.1-0.2,0.2-0.3,0.4c-0.1,0.4-0.1,1.2-1.5,1.3s-2-0.3-5.3-0.5c-3.3-0.2-3.7,1.4-5.5,1.5
	c-1.7,0.1-3.2-0.4-5.5-0.4c-2.3,0-4.4,0.7-4.7,0.6c-0.4-0.1-0.4-1.3-1.7-2.2c-1.3-0.9-3.2-0.8-4-2.1c-0.8-1.3,0.1-3.4,3.3-6.2
	c3.3-2.8,6.2-3.3,9.7-5c3.5-1.7,4.3-3.9,7.4-3.7c3.1,0.2,3.8-0.4,3.8-0.4c1.4-0.1,2.8-1.5,6.1-1.5c3,0.3,4.1,1.1,4.5,6.2
	c0.3,5.1,2.1,6.3,8.7,9.2c10,4.5,12,14.5,11.3,17.6c-0.3,2.6-2.6,2.7-3.8,2.7c-0.8-0.1-1.5-0.2-2.2-0.3c-1.3-0.3-2.4-0.5-4.1-1.1
	c0.2-1.2,0.4-2.2,0.5-2.7c0.4-1.6,0.9-3.9-1.3-2.3c-0.2,0.2-0.4,0.4-0.6,0.6c-0.5,0.6-0.8,1.3-1,2.1c-0.1,0.5-0.2,1.1-0.4,1.7
	c-1.4-0.4-2.8-0.7-4.2-0.8c-1.1-0.2-2.3-0.1-3.4,0.2c-0.4,0.1-0.8,0.4-1.2,0.7c-0.3,0.3-0.6,0.7-0.7,1.2C81,66.4,81,66.9,81,67.3
	c0.1,0.3,0.2,0.4,0.4,0.4c0.2,0,0.3-0.2,0.3-0.5c0-0.4,0.1-0.8,0.3-1.2c0.2-0.4,0.4-0.7,0.8-0.9c0.7-0.4,1.5-0.6,2.3-0.5
	c0.9,0,1.9,0.2,2.8,0.4c1,0.3,1.9,0.5,2.6,0.8c-0.2,1.1-0.4,2.3-0.5,3.5c-0.3,2.5-0.5,5.1-0.4,7.6l0,0c-1.3-0.1-2.5,0.2-3.6,0.9l0,0
	c-2.3-2.6-3.2-4.1-3.4-6c-0.2-2.1,1.7-3.2,2.7-2.9l0.3,0.1c0.3,0.1,0.5,0.3,0.7,0.4c0.5,0.5,0.9,1.1,1.2,1.7
	c0.2,0.3,0.3,0.5,0.5,0.4c0.1-0.1,0.2-0.3,0.1-0.8c-0.2-0.6-0.5-1.1-0.9-1.5c-0.6-0.7-1.4-1.1-2.3-1.2c-0.6-0.1-1.2,0-1.8,0.2
	c-0.6,0.2-1.1,0.5-1.5,0.9c-0.9,0.7-1.4,1.8-1.5,2.9c-0.1,1.3,0.3,2.6,1.1,3.7c0.6,0.8,1.4,1.8,2.3,2.9l0.6,0.7
	c-0.7,0.6-1.3,1.3-1.7,2c-0.8,1.4-1.1,2.5-0.9,3.4c0.1,0.4,0.2,0.8,0.5,1.2c0.2,0.4,0.6,0.6,0.9,0.9c0.7,0.4,1.5,0.6,2.3,0.6
	c0.6,0,1.1-0.1,1.6-0.2l0,0h0.1c0.1,0,0.2-0.1,0.3-0.1c0.5-0.2,0.9-0.5,1.2-0.9c2-2,0.4-5.1-1.7-7.5l-0.2-0.2
	c0.6-0.3,1.2-0.5,1.8-0.6c0.5-0.1,0.9-0.1,1.4-0.1c0,0.4,0,0.8,0.1,1.3c0.1,0.9,0.3,1.8,0.6,2.6c0.4,1.1,1,1.6,1.8,1.7
	c0.7,0.1,1.5-0.2,2.3-1c0.6-0.6,1-1.2,1.4-1.9c0.1-0.2,0.3-0.4,0.4-0.7c0,0.5,0.1,1,0.2,1.5c0.1,0.5,0.3,1.1,0.6,1.5
	c0.1,0.2,0.3,0.4,0.5,0.5c0.2,0.1,0.5,0.1,0.7,0.1c0.5-0.1,1-0.5,1.3-0.9c0.4-0.5,0.8-1.1,1.2-1.7c0.1-0.1,0.2-0.3,0.2-0.4
	c0.5,1.9,1.7,3.1,3.4,3c0.5,0,0.9,0,1.4-0.2c1-0.4,1.9-1,2.6-1.8c0.8-0.8,1.5-1.8,1.9-2.9c0.2-0.3,0.2-0.7,0.2-1.1
	C110.4,77.2,110.3,77.1,110.2,77.1L110.2,77.1z M86.6,82.5c0.3,0.5,0.6,1,0.7,1.6c0.1,0.3,0.1,0.6,0,0.9c-0.1,0.3-0.2,0.6-0.5,0.8
	c-0.2,0.2-0.5,0.4-0.8,0.5c-0.3,0.1-0.6,0.2-1,0.2c-0.7,0-1.4-0.2-1.9-0.5c-0.3-0.2-0.5-0.4-0.7-0.7c-0.2-0.3-0.3-0.6-0.4-0.9
	c-0.1-0.7,0.2-1.7,0.8-2.9c0.4-0.7,1-1.3,1.6-1.9C85.2,80.7,86,81.6,86.6,82.5L86.6,82.5z M119.8,77.1c-0.2-0.1-0.4-0.2-0.6-0.2
	c-1.2-0.1-2.3,0.2-3.4,0.7l-0.1,0c-3.2-2.8-3.9-4.1-3.4-6.5c0-0.4,0.2-0.8,0.4-1.1c0.2-0.3,0.5-0.6,0.9-0.7c0.3-0.2,0.7-0.3,1.1-0.2
	s0.8,0.1,1.1,0.3l0,0c0.5,0.5,0.9,1.1,1.2,1.7c0.2,0.3,0.3,0.5,0.5,0.4c0.1-0.1,0.2-0.3,0.1-0.8c-0.2-0.6-0.5-1.1-0.9-1.5
	c-0.6-0.7-1.4-1.1-2.3-1.2c-0.6-0.1-1.2,0-1.7,0.1c-0.6,0.2-1.1,0.4-1.5,0.8c-0.9,0.7-1.4,1.8-1.5,2.9c-0.1,1.3,0.3,2.6,1.1,3.7
	c0.6,0.8,1.4,1.8,2.3,2.9l0.6,0.7c-0.7,0.6-1.2,1.3-1.7,2c-0.8,1.4-1.1,2.5-0.9,3.4c0.1,0.4,0.2,0.8,0.5,1.2
	c0.2,0.4,0.6,0.6,0.9,0.9c0.7,0.4,1.5,0.6,2.3,0.6c0.7,0,1.3-0.1,2-0.4v0l0.3-0.1c0.2-0.1,0.4-0.2,0.6-0.4c3.4-2.4,1.2-5.9-1.2-8.2
	c0.5-0.2,1-0.4,1.5-0.5c0.6-0.1,1.2-0.1,1.7,0c0,0,0.1,0,0.1,0c0,0,0.1,0,0.1-0.1c0.1-0.1,0.1-0.1,0.1-0.2
	C120,77.3,119.9,77.2,119.8,77.1L119.8,77.1z M117.1,84.1c0.1,0.3,0.1,0.6,0,0.9c-0.1,0.3-0.2,0.6-0.5,0.8c-0.2,0.2-0.5,0.4-0.8,0.5
	c-0.3,0.1-0.6,0.2-1,0.2c-0.7,0-1.4-0.2-1.9-0.5c-0.3-0.2-0.5-0.4-0.7-0.7c-0.2-0.3-0.3-0.6-0.4-0.9c-0.1-0.7,0.2-1.7,0.8-2.9
	c0.4-0.7,1-1.3,1.6-1.9c0.8,1,1.5,1.9,2.2,2.8C116.7,83,116.9,83.5,117.1,84.1L117.1,84.1z"/>
</svg>
