<svg xmlns="http://www.w3.org/2000/svg" viewBox="0 0 15.1 15.05"><defs><style>.cls-1{fill:#9d1b80;}</style></defs><g id="Layer_2" data-name="Layer 2"><g id="Слой_1" data-name="Слой 1"><path class="cls-1" d="M15.1,8c0,.28-.07.56-.11.84a7.41,7.41,0,0,1-1,2.57c-.18.29-.39.57-.6.85a.17.17,0,0,1-.13.05,10.46,10.46,0,0,0-2-.77,14.26,14.26,0,0,0,.54-3.74H15.1Z"/><path class="cls-1" d="M15.1,7.25H11.87a14.62,14.62,0,0,0-.53-3.69l2.06-.82c.1.14.24.31.36.48a7.61,7.61,0,0,1,1.3,3.47c0,.13,0,.26,0,.39Z"/><path class="cls-1" d="M0,7.8H3.25a14.6,14.6,0,0,0,.54,3.72c-.19.06-.38.11-.56.18l-1.38.59c-.07,0-.11,0-.17,0A7.49,7.49,0,0,1,.15,8.94C.08,8.57.05,8.19,0,7.8Z"/><path class="cls-1" d="M1.72,2.74l2.06.82a14,14,0,0,0-.53,3.68H0A7.55,7.55,0,0,1,1.72,2.74Z"/><path class="cls-1" d="M3.79,7.8H7.28V11c-.49,0-1,.06-1.48.12s-1,.15-1.48.24A13.42,13.42,0,0,1,3.79,7.8Z"/><path class="cls-1" d="M7.84,11V7.8h3.49a13.68,13.68,0,0,1-.53,3.59A14.77,14.77,0,0,0,7.84,11Z"/><path class="cls-1" d="M4.32,3.67c.5.08,1,.18,1.48.24S6.78,4,7.28,4V7.24H3.79A13.41,13.41,0,0,1,4.32,3.67Z"/><path class="cls-1" d="M7.84,4a14.09,14.09,0,0,0,3-.36,13.69,13.69,0,0,1,.53,3.6H7.84Z"/><path class="cls-1" d="M7.28,11.59V15a1.55,1.55,0,0,1-.66-.21,3.56,3.56,0,0,1-1.27-1.2,7.38,7.38,0,0,1-.85-1.71A11.84,11.84,0,0,1,7.28,11.59Z"/><path class="cls-1" d="M7.83,15.05V11.61a10.61,10.61,0,0,1,2.8.31A5.51,5.51,0,0,1,8.72,14.7,1.94,1.94,0,0,1,7.83,15.05Z"/><path class="cls-1" d="M4.49,3.14A5.82,5.82,0,0,1,6.22.47,2.22,2.22,0,0,1,7.28,0V3.47A13.89,13.89,0,0,1,4.49,3.14Z"/><path class="cls-1" d="M10.61,3.13a12.07,12.07,0,0,1-2.77.33V0a2,2,0,0,1,.67.22A3.59,3.59,0,0,1,9.78,1.43a7.36,7.36,0,0,1,.83,1.66S10.61,3.12,10.61,3.13Z"/><path class="cls-1" d="M2.1,12.72,3.9,12c.26.53.47,1,.75,1.5a14.33,14.33,0,0,0,.95,1.29A7.5,7.5,0,0,1,2.1,12.72Z"/><path class="cls-1" d="M13,2.3a8.69,8.69,0,0,1-1.8.7c-.24-.5-.44-1-.72-1.47S9.84.66,9.52.24A7.41,7.41,0,0,1,13,2.3Z"/><path class="cls-1" d="M5.63.24A7.07,7.07,0,0,0,4,3a7.58,7.58,0,0,1-1.84-.71A7.46,7.46,0,0,1,5.63.24Z"/><path class="cls-1" d="M9.48,14.81A6.92,6.92,0,0,0,11.16,12a9.93,9.93,0,0,1,1.85.71A7.5,7.5,0,0,1,9.48,14.81Z"/></g></g></svg>