<svg xmlns="http://www.w3.org/2000/svg" viewBox="0 0 15.24 15.18"><defs><style>.cls-1{fill:#9d1b80;}</style></defs><g id="Layer_2" data-name="Layer 2"><g id="Слой_1" data-name="Слой 1"><path class="cls-1" d="M13,0H2.23A2.23,2.23,0,0,0,0,2.23V13a2.22,2.22,0,0,0,2.23,2.22H13A2.23,2.23,0,0,0,15.24,13V2.23A2.24,2.24,0,0,0,13,0ZM7.65,12a4.4,4.4,0,1,1,4.4-4.4A4.4,4.4,0,0,1,7.65,12Zm4.46-7.51a1.34,1.34,0,1,1,1.34-1.34A1.34,1.34,0,0,1,12.11,4.45Z"/><path class="cls-1" d="M12.11,2.67a.45.45,0,1,0,.45.44A.45.45,0,0,0,12.11,2.67Z"/><path class="cls-1" d="M10.77,7.56A3.12,3.12,0,1,1,7.65,4.45,3.12,3.12,0,0,1,10.77,7.56Z"/></g></g></svg>