<svg xmlns="http://www.w3.org/2000/svg" viewBox="0 0 15.14 15.14"><defs><style>.cls-1{fill:#9d1b80;}</style></defs><g id="Layer_2" data-name="Layer 2"><g id="Слой_1" data-name="Слой 1"><path class="cls-1" d="M0,3.08c0-.18.06-.35.1-.52A2.79,2.79,0,0,1,.94,1.13L1.81.29a.94.94,0,0,1,1.38,0C4,1.1,4.78,1.89,5.57,2.69a.94.94,0,0,1,0,1.38L5,4.7A1.43,1.43,0,0,0,4.7,6.46a9.76,9.76,0,0,0,4,4,1.46,1.46,0,0,0,1.77-.25l.62-.62a.94.94,0,0,1,1.39,0c.8.79,1.59,1.58,2.38,2.38a.94.94,0,0,1,0,1.36l-1,1a2.85,2.85,0,0,1-1.65.75.5.5,0,0,0-.13,0h-.71L10.71,15A9.22,9.22,0,0,1,7.9,13.92,18.9,18.9,0,0,1,1.4,7.54a9.43,9.43,0,0,1-1.27-3c0-.25-.09-.5-.13-.75Z"/></g></g></svg>