<svg xmlns="http://www.w3.org/2000/svg" viewBox="0 0 15.23 15.19"><defs><style>.cls-1{fill:#9d1b80;}</style></defs><g id="Layer_2" data-name="Layer 2"><g id="Слой_1" data-name="Слой 1"><path class="cls-1" d="M13,0H2.23A2.23,2.23,0,0,0,0,2.22V13a2.23,2.23,0,0,0,2.23,2.23H13A2.23,2.23,0,0,0,15.23,13V2.22A2.23,2.23,0,0,0,13,0Zm-.68,6.54c0,.09-.05.1-.13.1A4.68,4.68,0,0,1,11,6.42a4,4,0,0,1-1.12-.54l-.08,0a.32.32,0,0,0,0,.09c0,.86,0,1.72,0,2.58,0,.41,0,.83,0,1.24a3.31,3.31,0,0,1-2.29,3,3.21,3.21,0,0,1-2.14,0,3.47,3.47,0,0,1-2-1.63,3.41,3.41,0,0,1,2.34-5,3.18,3.18,0,0,1,1,0c.07,0,.1,0,.1.1V8s0,0,0,.07H6.7A1.54,1.54,0,1,0,7.88,9.52V6.13c0-1.1,0-2.2,0-3.3,0-.17,0-.33,0-.5s0-.13.13-.13H9.56c.18,0,.18,0,.19.18a2.58,2.58,0,0,0,2.16,2.36l.3,0c.08,0,.11,0,.11.11C12.31,5.44,12.31,6,12.32,6.54Z"/></g></g></svg>