<svg xmlns="http://www.w3.org/2000/svg" viewBox="0 0 15.23 8.67"><defs><style>.cls-1{fill:#9d1b80;}</style></defs><g id="Layer_2" data-name="Layer 2"><g id="Слой_1" data-name="Слой 1"><path class="cls-1" d="M15.1,7.73A6.84,6.84,0,0,0,13.58,6C12.31,4.8,12.48,5,14,3,15,1.71,15.33,1,15.21.63s-.8-.23-.8-.23H12.12a.58.58,0,0,0-.3.05.71.71,0,0,0-.2.25,13.37,13.37,0,0,1-.84,1.78c-1,1.73-1.43,1.82-1.6,1.71-.39-.25-.29-1-.29-1.54C8.89,1,9.15.29,8.4.11A4.08,4.08,0,0,0,7.33,0a4.72,4.72,0,0,0-1.9.2C5.16.32,5,.61,5.09.62A1,1,0,0,1,5.76,1,2.17,2.17,0,0,1,6,2s.13,2-.32,2.21S4.94,4,4,2.47A15.76,15.76,0,0,1,3.21.78.57.57,0,0,0,3,.53,1,1,0,0,0,2.67.38L.5.4S.17.41.05.55,0,.93,0,.93a24.89,24.89,0,0,0,3.63,6A5.24,5.24,0,0,0,7.45,8.63h.91a.78.78,0,0,0,.42-.18.64.64,0,0,0,.12-.4s0-1.22.55-1.4,1.28,1.18,2,1.7a1.48,1.48,0,0,0,1,.31l2,0S15.6,8.56,15.1,7.73Z"/></g></g></svg>